<?xml version="1.0" standalone="no"?>
<!DOCTYPE svg PUBLIC "-//W3C//DTD SVG 1.1//EN" "http://www.w3.org/Graphics/SVG/1.1/DTD/svg11.dtd" >
<svg xmlns="http://www.w3.org/2000/svg" xmlns:xlink="http://www.w3.org/1999/xlink" version="1.1" viewBox="-10 0 1034 1024">
   <path fill="currentColor"
d="M737.6 889.7h-594.399q-8 0 -14 -6t-6 -14.7998v-594.4q0 -8.7998 6 -14.7998t14 -6h122.399v-98.4004q0 -8 6 -14t14.8008 -6h594.399q8 0 14 6t6 14v594.4q0 8.7998 -6 14.7998t-14 6h-122.399v98.4004q0 8.7998 -6 14.7998t-14.8008 6zM164 848.1h553.6v-553.6h-553.6
v553.6zM758.4 729.7h101.6v-553.601h-553.6v77.6006h431.199q8.80078 0 14.8008 6t6 14.7998v455.2z" />
</svg>
