<?xml version="1.0" standalone="no"?>
<!DOCTYPE svg PUBLIC "-//W3C//DTD SVG 1.1//EN" "http://www.w3.org/Graphics/SVG/1.1/DTD/svg11.dtd" >
<svg xmlns="http://www.w3.org/2000/svg" xmlns:xlink="http://www.w3.org/1999/xlink" version="1.1" viewBox="-10 0 1010 1000">
   <path fill="currentColor"
d="M708 83q17 0 29.5 12.5t12.5 29.5v83h125q17 0 29.5 12.5t12.5 29.5v542q0 17 -12.5 29t-29.5 12h-750q-17 0 -29.5 -12t-12.5 -29v-542q0 -17 12.5 -29.5t29.5 -12.5h125v-83q0 -17 12.5 -29.5t29.5 -12.5h416zM167 500v250h666v-250h-666zM667 167h-334v41h334v-41z
M167 417h666v-125h-666v125z" />
</svg>
