<?xml version="1.0" standalone="no"?>
<!DOCTYPE svg PUBLIC "-//W3C//DTD SVG 1.1//EN" "http://www.w3.org/Graphics/SVG/1.1/DTD/svg11.dtd" >
<svg xmlns="http://www.w3.org/2000/svg" xmlns:xlink="http://www.w3.org/1999/xlink" version="1.1" viewBox="-10 0 1010 1000">
   <path fill="currentColor"
d="M792 708h-125v84h125v-84zM333 708h-125v84h125v-84zM563 208h-125v84h125v-84zM833 625q17 0 29.5 12.5t12.5 29.5v166q0 17 -12.5 29.5t-29.5 12.5h-208q-17 0 -29.5 -12.5t-12.5 -29.5v-166q0 -17 12.5 -29.5t29.5 -12.5h63v-83h-375v83h62q17 0 29.5 12.5t12.5 29.5
v166q0 17 -12.5 29.5t-29.5 12.5h-208q-17 0 -29.5 -12.5t-12.5 -29.5v-166q0 -17 12.5 -29.5t29.5 -12.5h62v-125q0 -17 12.5 -29.5t29.5 -12.5h187v-83h-62q-17 0 -29.5 -12.5t-12.5 -29.5v-166q0 -17 12.5 -29.5t29.5 -12.5h208q17 0 29.5 12.5t12.5 29.5v166
q0 17 -12.5 29.5t-29.5 12.5h-62v83h187q17 0 29.5 12.5t12.5 29.5v125h62z" />
</svg>
