<?xml version="1.0" standalone="no"?>
<!DOCTYPE svg PUBLIC "-//W3C//DTD SVG 1.1//EN" "http://www.w3.org/Graphics/SVG/1.1/DTD/svg11.dtd" >
<svg xmlns="http://www.w3.org/2000/svg" xmlns:xlink="http://www.w3.org/1999/xlink" version="1.1" viewBox="-10 0 1010 1000">
   <path fill="currentColor"
d="M375 83v84h250v-84h83v84h125q17 0 29.5 12t12.5 29v625q0 17 -12.5 29.5t-29.5 12.5h-666q-17 0 -29.5 -12.5t-12.5 -29.5v-625q0 -17 12.5 -29t29.5 -12h125v-84h83zM792 250h-584v542h584v-542zM747 330l6 6q8 8 7.5 18.5t-8.5 17.5l-289 280q-10 9 -23.5 9t-23.5 -10
l-127 -122q-7 -7 -8 -17t6 -17l12 -15q6 -7 16 -8.5t18 3.5l102 66q1 1 3.5 0.5t3.5 -1.5l270 -212q7 -6 17 -5.5t18 7.5z" />
</svg>
