<?xml version="1.0" standalone="no"?>
<!DOCTYPE svg PUBLIC "-//W3C//DTD SVG 1.1//EN" "http://www.w3.org/Graphics/SVG/1.1/DTD/svg11.dtd" >
<svg xmlns="http://www.w3.org/2000/svg" xmlns:xlink="http://www.w3.org/1999/xlink" version="1.1" viewBox="-10 0 1010 1000">
   <path fill="currentColor"
d="M189 384q-9 -10 -5 -22.5t16 -16.5t21 6q32 34 76 62q41 26 87 42q108 37 218 6q100 -28 191 -110q10 -9 22.5 -4.5t16 16.5t-6.5 21q-30 26 -46 38l40 79q7 12 -0.5 23t-19.5 12t-19 -12l-39 -76q-40 25 -83 43l33 85q5 12 -3.5 20t-20.5 7t-18 -12l-2 -3l-32 -82
q-43 13 -94 16v99q0 13 -10.5 18.5t-21.5 1.5t-13 -16v-103q-36 -3 -76 -14l-18 -5l-34 90q-5 12 -17 14.5t-21 -4.5t-7 -19l1 -4l36 -93q-40 -17 -76 -41l-53 70q-6 8 -14.5 10.5t-16 -2t-11 -13t0.5 -15.5l57 -77q-19 -17 -38 -35z" />
</svg>
