<?xml version="1.0" standalone="no"?>
<!DOCTYPE svg PUBLIC "-//W3C//DTD SVG 1.1//EN" "http://www.w3.org/Graphics/SVG/1.1/DTD/svg11.dtd" >
<svg xmlns="http://www.w3.org/2000/svg" xmlns:xlink="http://www.w3.org/1999/xlink" version="1.1" viewBox="-10 0 1010 1000">
   <path fill="currentColor"
d="M792 83q17 0 29 12.5t12 29.5v750q0 17 -12 29.5t-29 12.5h-209v-84h167v-458h-62v-83h62v-125h-167v-84h209zM417 83v84h-167v125h63v83h-63v458h167v84h-209q-17 0 -29 -12.5t-12 -29.5v-750q0 -17 12 -29.5t29 -12.5h209zM479 292v83h-125v-83h125zM646 292v83h-125
v-83h125zM583 83h84q0 45 -22.5 83.5t-61 61t-83.5 22.5t-83.5 -22.5t-61 -61t-22.5 -83.5h84q0 35 24.5 59.5t58.5 24.5t58.5 -24.5t24.5 -59.5zM583 83h84q0 45 -22.5 83.5t-61 61t-83.5 22.5t-83.5 -22.5t-61 -61t-22.5 -83.5h84q0 35 24.5 59.5t58.5 24.5t58.5 -24.5
t24.5 -59.5zM583 917q0 -35 -24.5 -59.5t-58.5 -24.5t-58.5 24.5t-24.5 59.5h-84q0 -45 22.5 -83.5t61 -61t83.5 -22.5t83.5 22.5t61 61t22.5 83.5h-84zM583 917q0 -35 -24.5 -59.5t-58.5 -24.5t-58.5 24.5t-24.5 59.5h-84q0 -45 22.5 -83.5t61 -61t83.5 -22.5t83.5 22.5
t61 61t22.5 83.5h-84z" />
</svg>
