<?xml version="1.0" standalone="no"?>
<!DOCTYPE svg PUBLIC "-//W3C//DTD SVG 1.1//EN" "http://www.w3.org/Graphics/SVG/1.1/DTD/svg11.dtd" >
<svg xmlns="http://www.w3.org/2000/svg" xmlns:xlink="http://www.w3.org/1999/xlink" version="1.1" viewBox="-10 0 1010 1000">
   <path fill="currentColor"
d="M417 83q0 35 24.5 59.5t58.5 24.5t58.5 -24.5t24.5 -59.5h209q17 0 29 12.5t12 29.5v750q0 17 -12 29.5t-29 12.5h-209q0 -35 -24.5 -59.5t-58.5 -24.5t-58.5 24.5t-24.5 59.5h-209q-17 0 -29 -12.5t-12 -29.5v-750q0 -17 12 -29.5t29 -12.5h209zM313 292h-125v83h125
v-83zM479 292h-125v83h125v-83zM646 292h-125v83h125v-83zM813 292h-125v83h125v-83z" />
</svg>
