<?xml version="1.0" standalone="no"?>
<!DOCTYPE svg PUBLIC "-//W3C//DTD SVG 1.1//EN" "http://www.w3.org/Graphics/SVG/1.1/DTD/svg11.dtd" >
<svg xmlns="http://www.w3.org/2000/svg" xmlns:xlink="http://www.w3.org/1999/xlink" version="1.1" viewBox="-10 0 1010 1000">
   <path fill="currentColor"
d="M707 93l148 147q12 13 12 30t-12 29l-118 118l-206 -206l117 -118q13 -12 30 -12t29 12zM678 181l-30 30l89 88l29 -29zM833 833v84h-666v-84h666zM501 240l206 206l-324 325l-173 11q-17 1 -30 -10.5t-15 -28.5v-5l12 -174zM501 358l-243 243l-6 95l94 -6l243 -244z" />
</svg>
