<?xml version="1.0" standalone="no"?>
<!DOCTYPE svg PUBLIC "-//W3C//DTD SVG 1.1//EN" "http://www.w3.org/Graphics/SVG/1.1/DTD/svg11.dtd" >
<svg xmlns="http://www.w3.org/2000/svg" xmlns:xlink="http://www.w3.org/1999/xlink" version="1.1" viewBox="-10 0 1010 1000">
   <path fill="currentColor"
d="M632 292q15 0 26.5 9.5t14.5 24.5l73 428q2 11 -1.5 21t-11.5 17l-205 183q-12 10 -28 10t-28 -10l-205 -183q-7 -7 -11 -17t-2 -21l73 -428q3 -15 14.5 -24.5t27.5 -9.5h263zM625 42q17 0 29.5 12t12.5 29v125q0 17 -12.5 29.5t-29.5 12.5h-250q-17 0 -29.5 -12.5
t-12.5 -29.5v-125q0 -17 12.5 -29t29.5 -12h250z" />
</svg>
