<?xml version="1.0" standalone="no"?>
<!DOCTYPE svg PUBLIC "-//W3C//DTD SVG 1.1//EN" "http://www.w3.org/Graphics/SVG/1.1/DTD/svg11.dtd" >
<svg xmlns="http://www.w3.org/2000/svg" xmlns:xlink="http://www.w3.org/1999/xlink" version="1.1" viewBox="-10 0 1010 1000">
   <path fill="currentColor"
d="M500 167q81 0 158 29q67 25 127 71q52 39 94 89q37 44 59 86q20 38 20 57.5t-23 58.5q-24 42 -64 86q-45 50 -98 89q-62 46 -126 71q-74 29 -147 29t-147 -29q-64 -25 -126 -71q-53 -39 -98 -89q-40 -44 -64 -86q-23 -39 -23 -58.5t20 -57.5q22 -42 59 -86q42 -50 94 -89
q61 -46 128 -71q76 -29 157 -29zM500 250q-77 0 -149 32q-69 31 -130 89q-48 46 -77 94l-1 2q-10 18 -13 26l-3 5l14 26l5 7q32 49 85 97q64 58 131 89q70 33 138 33t138 -33q67 -31 131 -89q53 -48 85 -97q4 -6 11 -19l6 -9l2 -5l-2 -5l-15 -28q-29 -48 -77 -94
q-61 -58 -130 -89q-72 -32 -149 -32zM500 333q45 0 83.5 22.5t61 61t22.5 83.5t-22.5 83.5t-61 61t-83.5 22.5t-83.5 -22.5t-61 -61t-22.5 -83.5t22.5 -83.5t61 -61t83.5 -22.5zM500 417q-34 0 -58.5 24t-24.5 58.5t24.5 59t59 24.5t58.5 -24.5t24 -59t-24 -58.5t-59 -24z
" />
</svg>
