<?xml version="1.0" standalone="no"?>
<!DOCTYPE svg PUBLIC "-//W3C//DTD SVG 1.1//EN" "http://www.w3.org/Graphics/SVG/1.1/DTD/svg11.dtd" >
<svg xmlns="http://www.w3.org/2000/svg" xmlns:xlink="http://www.w3.org/1999/xlink" version="1.1" viewBox="-10 0 1010 1000">
   <path fill="currentColor"
d="M887 347q30 74 30 153q0 113 -57 210q-55 95 -150 150q-97 57 -210 57q-79 0 -153 -30l66 -66q42 12 87 12q91 0 168 -45q75 -45 120 -120q45 -77 45 -168q0 -45 -12 -87zM500 333q45 0 83.5 22.5t61 61t22.5 83.5t-22.5 83.5t-61 61t-83.5 22.5t-83.5 -22.5t-61 -61
t-22.5 -83.5t22.5 -83.5t61 -61t83.5 -22.5zM500 83q69 0 139 24l14 6l-66 66q-42 -12 -87 -12q-91 0 -168 45q-75 45 -120 120q-45 77 -45 168q0 36 8 73l4 14l-66 66q-30 -74 -30 -153q0 -113 57 -210q55 -95 150 -150q97 -57 210 -57zM500 417q-34 0 -58.5 24t-24.5 58.5
t24.5 59t59 24.5t58.5 -24.5t24 -59t-24 -58.5t-59 -24z" />
</svg>
