<?xml version="1.0" standalone="no"?>
<!DOCTYPE svg PUBLIC "-//W3C//DTD SVG 1.1//EN" "http://www.w3.org/Graphics/SVG/1.1/DTD/svg11.dtd" >
<svg xmlns="http://www.w3.org/2000/svg" xmlns:xlink="http://www.w3.org/1999/xlink" version="1.1" viewBox="-10 0 1010 1000">
   <path fill="currentColor"
d="M500 83q48 0 88.5 22t66.5 60.5t31 84.5h67q17 0 28.5 11.5t12.5 27.5l37 583q1 17 -10.5 30.5t-28.5 14.5h-581q-17 0 -29.5 -12.5t-12.5 -29.5l37 -586q1 -16 13 -27.5t29 -11.5h66q5 -46 31 -84.5t67 -60.5t88 -22zM500 167h-7q-35 2 -61.5 25.5t-33.5 57.5h204
q-7 -34 -33.5 -57.5t-61.5 -25.5h-7z" />
</svg>
