<?xml version="1.0" standalone="no"?>
<!DOCTYPE svg PUBLIC "-//W3C//DTD SVG 1.1//EN" "http://www.w3.org/Graphics/SVG/1.1/DTD/svg11.dtd" >
<svg xmlns="http://www.w3.org/2000/svg" xmlns:xlink="http://www.w3.org/1999/xlink" version="1.1" viewBox="-10 0 1010 1000">
   <path fill="currentColor"
d="M287 333l-32 500h490l-32 -500h-426zM500 83q20 0 35 4h2l23 6l8 3q2 0 4 2l4 1q2 2 4 2l3 2q2 0 6 2q0 1 1 1l6 3l1 2q4 2 5 3l3 1q2 2 4 3l4 3q1 0 2 1l3 3l3 3q2 2 3.5 2.5t1.5 1.5l1 1q3 1 4 4q1 0 1 1l1 1q2 2 4 3l9 11q0 1 1 2l3 3t2 3l3 5q1 0 1 1l3 5q2 2 3 4
l9 17q0 1 1 4l2 4q2 4 2 5l3 8l6 28q1 2 1 6v2h67q17 0 28.5 11.5t12.5 27.5l37 583q1 17 -10.5 30.5t-28.5 14.5h-581q-17 0 -29.5 -12.5t-12.5 -29.5l37 -586q1 -16 13 -27.5t29 -11.5h66v-2q0 -4 1 -6l-1 8l1 -11l6 -25l9 -21v-2l8 -15q1 -2 3 -4l3 -5q0 -1 1 -1l5 -8
l3 -3t1 -2l7 -8l3 -3l3 -3l2 -3l9 -8q2 -1 4 -3l6 -5l3 -2q2 -1 4 -3l17 -10q2 -2 5 -2l3 -2q1 0 5 -2l3 -1q2 -2 4 -2l31 -9h2q15 -4 35 -4zM500 167q-12 0 -18 1q-2 0 -3 1l3 -1q-2 1 -6 1h3l-6 1l3 -1l-6 2l3 -1l-7 2l4 -1l-6 2l2 -1q-4 2 -6 2l4 -1l-7 3l3 -2l-6 3l3 -1
l-5 2l2 -1q-4 2 -6 4l4 -3q-4 2 -6 4l2 -1q-4 2 -5 3l3 -2l-6 3l3 -1q-4 2 -6 4l3 -3q-1 2 -5 4l2 -1l-5 4l3 -3q-3 3 -5 4l2 -1l-5 4l3 -3q-2 3 -5 5l2 -2q-1 3 -4 4l2 -2q-1 2 -4 5l2 -3l-4 6l2 -3l-4 5l2 -2q-2 1 -4 5l2 -3q-2 2 -4 6l2 -3q-2 2 -4 6l2 -3q-1 1 -3 5
l1 -2q-4 6 -6 12q-1 1 -1 2l1 -2l-2 4l1 -2l-3 6l2 -4q-4 9 -5 17h204q-1 -10 -6 -19q0 -1 -1 -2l1 2q-1 -6 -6 -12q0 -1 -1 -2l1 2q-2 -4 -3 -5l2 3q-2 -4 -4 -6l2 3q-2 -4 -4 -6l2 3q-2 -4 -4 -5l2 2q-1 -1 -3 -5l1 3q-1 -2 -5 -6l4 3l-5 -4l1 1q-1 -3 -4 -4l3 3
q-2 -3 -5 -5l2 2q-1 -3 -4 -4l2 2l-2 -2l-3 -3l3 3q-3 -3 -5 -4l2 1l-6 -4l4 3l-5 -4l1 1q-4 -2 -5 -4l4 3l-6 -3h2q-8 -4 -11 -5l-3 -2l3 2l-6 -3l3 1q-2 0 -6 -2l3 1l-7 -2l4 1l-7 -2l3 1l-6 -2l3 1l-6 -1h3q-3 0 -5 -1l2 1h-2q-8 -2 -12 -2h-7z" />
</svg>
