<?xml version="1.0" standalone="no"?>
<!DOCTYPE svg PUBLIC "-//W3C//DTD SVG 1.1//EN" "http://www.w3.org/Graphics/SVG/1.1/DTD/svg11.dtd" >
<svg xmlns="http://www.w3.org/2000/svg" xmlns:xlink="http://www.w3.org/1999/xlink" version="1.1" viewBox="-10 0 1010 1000">
   <path fill="currentColor"
d="M625 125v125h250q17 0 29.5 12.5t12.5 29.5v500q0 17 -12.5 29t-29.5 12h-750q-17 0 -29.5 -12t-12.5 -29v-500q0 -17 12.5 -29.5t29.5 -12.5h250v-125h250zM375 333h-208v417h666v-417h-208v84h-250v-84zM458 625v83h-208v-83h208zM458 500v83h-208v-83h208zM542 208
h-84v125h84v-125z" />
</svg>
