<?xml version="1.0" standalone="no"?>
<!DOCTYPE svg PUBLIC "-//W3C//DTD SVG 1.1//EN" "http://www.w3.org/Graphics/SVG/1.1/DTD/svg11.dtd" >
<svg xmlns="http://www.w3.org/2000/svg" xmlns:xlink="http://www.w3.org/1999/xlink" version="1.1" viewBox="-10 0 1010 1000">
   <path fill="currentColor"
d="M500 833q91 0 168 -45q75 -45 120 -120q45 -77 45 -168t-45 -168q-45 -75 -120 -120q-77 -45 -168 -45t-168 45q-75 45 -120 120q-45 77 -45 168t45 168q45 75 120 120q77 45 168 45zM500 83q113 0 210 57q95 55 150 150q57 97 57 210t-57 210q-55 95 -150 150
q-97 57 -210 57t-210 -57q-95 -55 -150 -150q-57 -97 -57 -210t57 -210q55 -95 150 -150q97 -57 210 -57zM493 623q19 0 31.5 12.5t12.5 31t-13 30t-31.5 11.5t-30.5 -12t-12 -30.5t12 -30.5t31 -12zM503 299q56 0 89.5 29.5t33.5 81.5q0 40 -21 69q-21 21 -48 44
q-15 12 -23 28t-8 37v8h-65v-17q2 -29 11 -46q11 -23 66 -72l11 -13q11 -17 11 -34q0 -28 -16 -44t-45 -16q-37 0 -53 23q-14 20 -14 55h-64v-10q3 -55 37 -88q37 -35 98 -35z" />
</svg>
