<?xml version="1.0" standalone="no"?>
<!DOCTYPE svg PUBLIC "-//W3C//DTD SVG 1.1//EN" "http://www.w3.org/Graphics/SVG/1.1/DTD/svg11.dtd" >
<svg xmlns="http://www.w3.org/2000/svg" xmlns:xlink="http://www.w3.org/1999/xlink" version="1.1" viewBox="-10 0 1010 1000">
   <path fill="currentColor"
d="M816 748l-117 -118l-82 115l-32 -14q-73 -33 -157 -117t-118 -158l-14 -31l115 -82l-117 -117l-72 72q-29 95 5 190t133 194q194 195 384 138zM688 502l246 246l-145 145l-10 3q-121 40 -241.5 1t-237 -156t-156 -237.5t0.5 -241.5l3 -9l146 -145l246 246l-138 98
q29 46 85 102.5t103 84.5z" />
</svg>
