<?xml version="1.0" standalone="no"?>
<!DOCTYPE svg PUBLIC "-//W3C//DTD SVG 1.1//EN" "http://www.w3.org/Graphics/SVG/1.1/DTD/svg11.dtd" >
<svg xmlns="http://www.w3.org/2000/svg" xmlns:xlink="http://www.w3.org/1999/xlink" version="1.1" viewBox="-10 0 1010 1000">
   <path fill="currentColor"
d="M500 83q113 0 210 57q95 55 150 150q57 97 57 210t-57 210q-55 95 -150 150q-97 57 -210 57t-210 -57q-95 -55 -150 -150q-57 -97 -57 -210t57 -210q55 -95 150 -150q97 -57 210 -57zM542 417h-125v62h41v188h-41v62h166v-62h-41v-250zM500 250q-25 0 -43.5 18t-18.5 44
t18 44.5t44 18.5t44.5 -18.5t18.5 -44.5t-18.5 -44t-44.5 -18z" />
</svg>
