<?xml version="1.0" standalone="no"?>
<!DOCTYPE svg PUBLIC "-//W3C//DTD SVG 1.1//EN" "http://www.w3.org/Graphics/SVG/1.1/DTD/svg11.dtd" >
<svg xmlns="http://www.w3.org/2000/svg" xmlns:xlink="http://www.w3.org/1999/xlink" version="1.1" viewBox="-10 0 1010 1000">
   <path fill="currentColor"
d="M313 125q51 0 94 25t68 68t25 94v188h188q51 0 94 25t68 68t25 94t-25 94t-68 68.5t-94 25.5t-94 -25.5t-68.5 -68.5t-25.5 -94v-187h-187q-50 0 -92 -24t-68 -65t-28 -90v-9q0 -51 25.5 -94t68.5 -68t94 -25zM453 547v164q0 44 -22 82t-59.5 60t-82 22t-82.5 -22
t-60 -60t-22 -82.5t22 -82t60 -59.5t82 -22h164zM711 125q45 0 82.5 22t59.5 59.5t22 81.5t-21 81t-56.5 59.5t-78.5 24.5h-172v-164q0 -45 22 -82.5t59.5 -59.5t82.5 -22z" />
</svg>
