<?xml version="1.0" standalone="no"?>
<!DOCTYPE svg PUBLIC "-//W3C//DTD SVG 1.1//EN" "http://www.w3.org/Graphics/SVG/1.1/DTD/svg11.dtd" >
<svg xmlns="http://www.w3.org/2000/svg" xmlns:xlink="http://www.w3.org/1999/xlink" version="1.1" viewBox="-10 0 1010 1000">
   <path fill="currentColor"
d="M875 167q17 0 29.5 12t12.5 29v500q0 17 -12.5 29.5t-29.5 12.5h-234l-109 129q-2 2 -2 3l-3 2q-12 10 -28 10t-27 -11l-4 -4l-109 -129h-234q-17 0 -29.5 -12.5t-12.5 -29.5v-500q0 -17 12.5 -29t29.5 -12h750zM313 408q-21 0 -35.5 15t-14.5 35.5t14.5 35t35 14.5
t35.5 -14.5t15 -35t-15 -35.5t-35 -15zM500 408q-21 0 -35.5 15t-14.5 35.5t14.5 35t35.5 14.5t35.5 -14.5t14.5 -35t-14.5 -35.5t-35.5 -15zM688 408q-21 0 -35.5 15t-14.5 35.5t14.5 35t35 14.5t35.5 -14.5t15 -35t-15 -35.5t-35 -15z" />
</svg>
