<?xml version="1.0" standalone="no"?>
<!DOCTYPE svg PUBLIC "-//W3C//DTD SVG 1.1//EN" "http://www.w3.org/Graphics/SVG/1.1/DTD/svg11.dtd" >
<svg xmlns="http://www.w3.org/2000/svg" xmlns:xlink="http://www.w3.org/1999/xlink" version="1.1" viewBox="-10 0 1010 1000">
   <path fill="currentColor"
d="M500 83q113 0 210 57q95 55 150 150q57 97 57 210t-57 210q-55 95 -150 150q-97 57 -210 57t-210 -57q-95 -55 -150 -150q-57 -97 -57 -210t57 -210q55 -95 150 -150q97 -57 210 -57zM724 321q-29 -33 -75.5 -45t-88.5 3q-93 33 -94 132q-1 83 0 167q2 55 -44 71
q-30 10 -55 2.5t-38 -34.5q-25 -57 41 -85l2 -1q19 -9 26 -16q10 -12 1 -31q-17 -34 -56 -16q-42 18 -66 43q-26 27 -27 58q0 45 18 80.5t49.5 55.5t69.5 21q35 1 69.5 -16.5t56.5 -47.5t24 -64q2 -44 1 -133v-53q0 -60 60 -69q28 -3 48 5q22 10 32 35t-3 46q-11 16 -37 30
l-3 2q-11 6 -17 11q-12 11 -15 18q-6 11 -1 23q11 24 46 19q44 -9 73 -48q27 -36 29 -81q2 -48 -26 -82z" />
</svg>
