<?xml version="1.0" standalone="no"?>
<!DOCTYPE svg PUBLIC "-//W3C//DTD SVG 1.1//EN" "http://www.w3.org/Graphics/SVG/1.1/DTD/svg11.dtd" >
<svg xmlns="http://www.w3.org/2000/svg" xmlns:xlink="http://www.w3.org/1999/xlink" version="1.1" viewBox="-10 0 1010 1000">
   <path fill="currentColor"
d="M500 83q113 0 210 57q95 55 150 150q57 97 57 210t-57 210q-55 95 -150 150q-97 57 -210 57t-210 -57q-95 -55 -150 -150q-57 -97 -57 -210t57 -210q55 -95 150 -150q97 -57 210 -57zM500 167q-91 0 -168 45q-75 45 -120 120q-45 77 -45 168t45 168q45 75 120 120
q77 45 168 45t168 -45q75 -45 120 -120q45 -77 45 -168t-45 -168q-45 -75 -120 -120q-77 -45 -168 -45zM724 321q28 34 26 82q-2 45 -29 81q-29 39 -73 48q-35 5 -46 -19q-5 -12 1 -23q3 -7 15 -18q6 -5 17 -11l3 -2q26 -14 37 -30q13 -21 3 -46t-32 -35q-20 -8 -48 -5
q-60 9 -60 69v53q1 89 -1 133q-2 34 -24 64t-56.5 47.5t-69.5 16.5q-38 -1 -69.5 -21t-49.5 -55.5t-18 -80.5q1 -31 27 -58q24 -25 66 -43q39 -18 56 16q9 19 -1 31q-7 7 -26 16l-2 1q-66 28 -41 85q13 27 38 34.5t55 -2.5q46 -16 44 -71q-1 -84 0 -167q1 -99 94 -132
q42 -15 88.5 -3t75.5 45z" />
</svg>
