<?xml version="1.0" standalone="no"?>
<!DOCTYPE svg PUBLIC "-//W3C//DTD SVG 1.1//EN" "http://www.w3.org/Graphics/SVG/1.1/DTD/svg11.dtd" >
<svg xmlns="http://www.w3.org/2000/svg" xmlns:xlink="http://www.w3.org/1999/xlink" version="1.1" viewBox="-10 0 1010 1000">
   <path fill="currentColor"
d="M229 437q26 0 44.5 18.5t18.5 44.5t-18.5 44t-44 18t-44 -18.5t-18.5 -44t18 -44t44 -18.5zM500 437q26 0 44.5 18.5t18.5 44.5t-18.5 44t-44 18t-44 -18.5t-18.5 -44t18 -44t44 -18.5zM771 437q26 0 44 18.5t18 44t-18 44t-44 18.5t-44.5 -18t-18.5 -44t18.5 -44.5
t44.5 -18.5z" />
</svg>
