<?xml version="1.0" standalone="no"?>
<!DOCTYPE svg PUBLIC "-//W3C//DTD SVG 1.1//EN" "http://www.w3.org/Graphics/SVG/1.1/DTD/svg11.dtd" >
<svg xmlns="http://www.w3.org/2000/svg" xmlns:xlink="http://www.w3.org/1999/xlink" version="1.1" viewBox="-10 0 1010 1000">
   <path fill="currentColor"
d="M723 792h-496l91 -459h497zM482 208l14 42h-212q-15 0 -26.5 9.5t-14.5 23.5l-35 175v-250h274zM866 250h-283l-32 -97q-4 -13 -14.5 -20.5t-24.5 -7.5h-345q-17 0 -29.5 12.5t-12.5 29.5v666q0 17 12.5 29.5t29.5 12.5h591q15 0 26.5 -9.5t13.5 -24.5l109 -541
q4 -19 -8.5 -34.5t-32.5 -15.5v0z" />
</svg>
