<?xml version="1.0" standalone="no"?>
<!DOCTYPE svg PUBLIC "-//W3C//DTD SVG 1.1//EN" "http://www.w3.org/Graphics/SVG/1.1/DTD/svg11.dtd" >
<svg xmlns="http://www.w3.org/2000/svg" xmlns:xlink="http://www.w3.org/1999/xlink" version="1.1" viewBox="-10 0 1010 1000">
   <path fill="currentColor"
d="M292 125v83h-42v625h500v-625h-42v-83h84q17 0 29 12.5t12 29.5v708q0 16 -10.5 27.5t-25.5 13.5l-5 1h-584q-17 0 -29 -12.5t-12 -29.5v-708q0 -17 12 -29.5t29 -12.5h84zM417 358l166 166l96 -95l59 59l-155 154l-166 -166l-96 95l-59 -59zM667 83v125h-334v-125h334z
" />
</svg>
