<?xml version="1.0" standalone="no"?>
<!DOCTYPE svg PUBLIC "-//W3C//DTD SVG 1.1//EN" "http://www.w3.org/Graphics/SVG/1.1/DTD/svg11.dtd" >
<svg xmlns="http://www.w3.org/2000/svg" xmlns:xlink="http://www.w3.org/1999/xlink" version="1.1" viewBox="-10 0 1010 1000">
   <path fill="currentColor"
d="M350 542q69 41 150 41t150 -41h38q51 0 94 25t68 68t25 94v104q0 35 -24.5 59.5t-58.5 24.5h-584q-34 0 -58.5 -24.5t-24.5 -59.5v-104q0 -51 25.5 -94t68.5 -68t94 -25h37zM328 625h-15q-28 0 -52.5 14t-38.5 38t-14 52v104h584v-104q0 -28 -14 -52t-38 -38t-52 -14h-16
q-82 42 -172 42t-172 -42zM500 83q57 0 104.5 28t75.5 76t28 105t-28 104.5t-75.5 75.5t-104.5 28t-104.5 -28t-75.5 -75.5t-28 -104.5t28 -105t75.5 -76t104.5 -28zM500 167q-34 0 -62.5 17t-45.5 45.5t-17 62.5t17 62.5t45.5 45.5t62.5 17t62.5 -17t45.5 -45.5t17 -62.5
t-17 -62.5t-45.5 -45.5t-62.5 -17z" />
</svg>
