<?xml version="1.0" standalone="no"?>
<!DOCTYPE svg PUBLIC "-//W3C//DTD SVG 1.1//EN" "http://www.w3.org/Graphics/SVG/1.1/DTD/svg11.dtd" >
<svg xmlns="http://www.w3.org/2000/svg" xmlns:xlink="http://www.w3.org/1999/xlink" version="1.1" viewBox="-10 0 1010 1000">
   <path fill="currentColor"
d="M619 79q108 30 186 107q-27 30 -32 70.5t16 76.5t58 52t77 8q14 53 14 107t-14 107q-39 -9 -76.5 7.5t-58.5 52.5t-16 76.5t32 70.5q-78 77 -186 107q-12 -39 -45 -63.5t-74 -24.5t-74 24.5t-45 63.5q-108 -30 -186 -107q27 -30 32 -70.5t-16 -76.5t-58.5 -52.5
t-76.5 -7.5q-13 -49 -13 -107t13 -107q40 8 77 -8t58 -52t16 -76.5t-32 -70.5q78 -77 186 -107q12 39 45 63.5t74 24.5q38 0 69 -21t46 -55l3 -7zM500 333q-45 0 -83.5 22.5t-61 61t-22.5 83.5t22.5 83.5t61 61t83.5 22.5t83.5 -22.5t61 -61t22.5 -83.5t-22.5 -83.5t-61 -61
t-83.5 -22.5z" />
</svg>
