<?xml version="1.0" standalone="no"?>
<!DOCTYPE svg PUBLIC "-//W3C//DTD SVG 1.1//EN" "http://www.w3.org/Graphics/SVG/1.1/DTD/svg11.dtd" >
<svg xmlns="http://www.w3.org/2000/svg" xmlns:xlink="http://www.w3.org/1999/xlink" version="1.1" viewBox="-10 0 1010 1000">
   <path fill="currentColor"
d="M619 79q108 30 186 107q-27 30 -32 70.5t16 76.5t58 52t77 8q14 53 14 107t-14 107q-39 -9 -76.5 7.5t-58.5 52.5t-16 76.5t32 70.5q-78 77 -186 107q-11 -39 -44 -63.5t-74.5 -24.5t-74.5 24.5t-45 63.5q-108 -30 -186 -107q27 -30 32 -70.5t-16 -76.5t-58.5 -52.5
t-76.5 -7.5q-13 -49 -13 -107t13 -107q40 8 77 -8t58 -52t16 -76.5t-32 -70.5q78 -77 186 -107q12 39 45 63.5t74.5 24.5t74.5 -24.5t44 -63.5zM655 181q-30 33 -70 51t-85 18t-85 -18t-70 -51q-30 16 -44 26q14 41 9.5 85t-27 83t-58 64.5t-78.5 35.5q-1 8 -1 25t1 25
q43 9 78.5 35t58 65t27 83t-9.5 85q14 10 44 26q30 -33 70 -51t85 -18t85 18t70 51q30 -16 44 -26q-14 -41 -9.5 -85.5t27 -83t58 -64.5t78.5 -35q1 -8 1 -25t-1 -25q-43 -10 -78.5 -36t-58 -64.5t-27 -82.5t9.5 -85q-14 -10 -44 -26zM500 333q45 0 83.5 22.5t61 61
t22.5 83.5t-22.5 83.5t-61 61t-83.5 22.5t-83.5 -22.5t-61 -61t-22.5 -83.5t22.5 -83.5t61 -61t83.5 -22.5zM500 417q-34 0 -58.5 24t-24.5 58.5t24.5 59t59 24.5t58.5 -24.5t24 -59t-24 -58.5t-59 -24z" />
</svg>
