<?xml version="1.0" standalone="no"?>
<!DOCTYPE svg PUBLIC "-//W3C//DTD SVG 1.1//EN" "http://www.w3.org/Graphics/SVG/1.1/DTD/svg11.dtd" >
<svg xmlns="http://www.w3.org/2000/svg" xmlns:xlink="http://www.w3.org/1999/xlink" version="1.1" viewBox="-10 0 1010 1000">
   <path fill="currentColor"
d="M750 833h42q-17 0 -29.5 12.5t-12.5 29.5v-42zM750 833v-291h83v333q0 17 -12 29.5t-29 12.5h-584q-17 0 -29 -12.5t-12 -29.5v-333h83v291h500zM250 833v42q0 -17 -12.5 -29.5t-29.5 -12.5h42zM250 833v42q0 -17 -12.5 -29.5t-29.5 -12.5h42zM250 833h500v-291h83v333
q0 17 -12 29.5t-29 12.5h-584q-17 0 -29 -12.5t-12 -29.5v-333h83v291zM792 833h-42v42q0 -17 12.5 -29.5t29.5 -12.5zM801 208q28 0 50.5 17.5t30.5 45.5l18 72q17 36 17 74q0 45 -22.5 83t-61 60.5t-83.5 22.5q-37 0 -69 -15t-56 -41q-23 26 -55.5 41t-69.5 15t-69 -15
t-56 -41q-23 26 -55.5 41t-69.5 15q-45 0 -83.5 -22.5t-61 -60.5t-22.5 -83q0 -40 18 -74l17 -72q8 -28 30.5 -45.5t50.5 -17.5h602zM801 292h-602l-20 81l-6 12q-6 15 -6 32q0 34 24.5 58.5t58 24.5t57.5 -22.5t26 -54.5v-6h84v6q2 32 26 54.5t57 22.5t57 -22.5t26 -54.5
v-6h84v6q2 32 26 54.5t58 22.5t58 -24.5t24 -58.5q0 -17 -6 -32l-3 -8l-3 -4zM792 83q17 0 29 12.5t12 29.5v42h-666v-42q0 -17 12 -29.5t29 -12.5h584z" />
</svg>
