<?xml version="1.0" standalone="no"?>
<!DOCTYPE svg PUBLIC "-//W3C//DTD SVG 1.1//EN" "http://www.w3.org/Graphics/SVG/1.1/DTD/svg11.dtd" >
<svg xmlns="http://www.w3.org/2000/svg" xmlns:xlink="http://www.w3.org/1999/xlink" version="1.1" viewBox="-10 0 1010 1000">
   <path fill="currentColor"
d="M798 83q31 0 54 20t28 50l29 171q8 26 8 51q0 45 -22.5 83.5t-61 61t-83.5 22.5q-37 0 -69 -15t-56 -42q-23 27 -55.5 42t-69.5 15t-69 -15t-56 -42q-23 27 -55.5 42t-69.5 15h-1l1 291h371v84h-392q-26 0 -44.5 -18.5t-18.5 -44.5v-335q-38 -22 -60.5 -60.5t-22.5 -83.5
q0 -25 8 -51l29 -171q5 -30 28 -50t54 -20h596zM576 566l171 171l100 -100l59 59l-159 159l-171 -171l-89 89l-59 -59zM798 167h-596l-29 174l-2 7q-4 11 -4 27q0 34 24.5 58.5t59 24.5t58.5 -24.5t24 -58.5h84q0 34 24.5 58.5t59 24.5t58.5 -24.5t24 -58.5h84
q0 34 24.5 58.5t59 24.5t58.5 -24.5t24 -58.5q0 -16 -4 -27l-2 -7z" />
</svg>
