<?xml version="1.0" standalone="no"?>
<!DOCTYPE svg PUBLIC "-//W3C//DTD SVG 1.1//EN" "http://www.w3.org/Graphics/SVG/1.1/DTD/svg11.dtd" >
<svg xmlns="http://www.w3.org/2000/svg" xmlns:xlink="http://www.w3.org/1999/xlink" version="1.1" viewBox="-10 0 1010 1000">
   <path fill="currentColor"
d="M500 83q113 0 210 57q95 55 150 150q57 97 57 210t-57 210q-55 95 -150 150q-97 57 -210 57t-210 -57q-95 -55 -150 -150q-57 -97 -57 -210t57 -210q55 -95 150 -150q97 -57 210 -57zM500 167q-91 0 -168 45q-75 45 -120 120q-45 77 -45 168t45 168q45 75 120 120
q77 45 168 45t168 -45q75 -45 120 -120q45 -77 45 -168t-45 -168q-45 -75 -120 -120q-77 -45 -168 -45zM660 602q10 15 6 31.5t-18 26.5q-68 44 -136 49q-63 4 -123 -26q-25 -12 -42 -27q-13 -11 -13.5 -28t10.5 -30.5t28 -14t31 10.5q5 5 23 14q84 43 176 -18
q15 -10 31.5 -6t26.5 18zM333 333q17 0 29.5 18.5t12.5 44t-12.5 44t-29.5 18.5t-29 -18t-12 -44t12 -44.5t29 -18.5zM667 333q17 0 29 18.5t12 44.5t-12 44t-29 18t-29.5 -18.5t-12.5 -44t12.5 -44t29.5 -18.5z" />
</svg>
