<?xml version="1.0" standalone="no"?>
<!DOCTYPE svg PUBLIC "-//W3C//DTD SVG 1.1//EN" "http://www.w3.org/Graphics/SVG/1.1/DTD/svg11.dtd" >
<svg xmlns="http://www.w3.org/2000/svg" xmlns:xlink="http://www.w3.org/1999/xlink" version="1.1" viewBox="-10 0 1010 1000">
   <path fill="currentColor"
d="M619 587l125 -128l-172 -26l-72 -154l-72 154l-172 26l125 128l-29 174l148 -82l148 82zM500 774l-182 101q-16 8 -32.5 3.5t-24.5 -19.5q-7 -11 -5 -27l36 -217l-152 -155q-12 -13 -12 -30t13 -29q9 -9 23 -12l207 -31l91 -194q8 -16 24 -21.5t32 1.5q14 6 20 20l91 194
l208 31q17 3 27 17t7 31q-1 12 -11 23l-152 155l36 217q2 17 -8 31t-27 17q-15 2 -27 -5z" />
</svg>
