<?xml version="1.0" standalone="no"?>
<!DOCTYPE svg PUBLIC "-//W3C//DTD SVG 1.1//EN" "http://www.w3.org/Graphics/SVG/1.1/DTD/svg11.dtd" >
<svg xmlns="http://www.w3.org/2000/svg" xmlns:xlink="http://www.w3.org/1999/xlink" version="1.1" viewBox="-10 0 1010 1000">
   <path fill="currentColor"
d="M500 83q57 0 104.5 28t75.5 76t28 105h-83q0 -34 -17 -62.5t-45.5 -45.5t-62.5 -17t-62.5 17t-45.5 45.5t-17 62.5v83h417q17 0 29 12.5t12 29.5v458q0 17 -12 29.5t-29 12.5h-584q-17 0 -29 -12.5t-12 -29.5v-458q0 -17 12 -29.5t29 -12.5h84v-83q0 -57 28 -105
t75.5 -76t104.5 -28zM750 458h-500v375h500v-375zM625 521v250h-250v-250h250zM542 604h-84v83h84v-83z" />
</svg>
