<?xml version="1.0" standalone="no"?>
<!DOCTYPE svg PUBLIC "-//W3C//DTD SVG 1.1//EN" "http://www.w3.org/Graphics/SVG/1.1/DTD/svg11.dtd" >
<svg xmlns="http://www.w3.org/2000/svg" xmlns:xlink="http://www.w3.org/1999/xlink" version="1.1" viewBox="-10 0 1010 1000">
   <path fill="currentColor"
d="M792 792h-125v-230q0 -26 18.5 -44t44 -18t44 18t18.5 44v230zM333 792h-125v-230q0 -26 18.5 -44t44.5 -18t44 18t18 44v230zM729 417q-48 0 -85.5 27.5t-51.5 71.5l-92 92l-91 -92q-15 -44 -53 -71.5t-85 -27.5q-40 0 -73.5 19.5t-53 53t-19.5 72.5v313h292v-233l83 84
l83 -84v233h292v-313q0 -39 -19.5 -72.5t-53 -53t-73.5 -19.5v0zM729 333q-25 0 -43.5 -18.5t-18.5 -44t18 -44t44 -18.5t44.5 18.5t18.5 44.5t-18.5 44t-44.5 18zM875 271q0 -40 -19.5 -73.5t-53 -53t-73 -19.5t-73.5 19.5t-53.5 53t-19.5 73t20 73t53.5 53.5t73 20
t73 -19.5t53 -53.5t19.5 -73zM271 333q-26 0 -44.5 -18t-18.5 -44t18.5 -44.5t44.5 -18.5t44 18.5t18 44t-18 44t-44 18.5zM417 271q0 -40 -19.5 -73.5t-53.5 -53t-73.5 -19.5t-73 19.5t-53 53t-19.5 73t19.5 73.5t53 53.5t73 19.5t73 -20t53.5 -53.5t20 -72.5z" />
</svg>
