<?xml version="1.0" standalone="no"?>
<!DOCTYPE svg PUBLIC "-//W3C//DTD SVG 1.1//EN" "http://www.w3.org/Graphics/SVG/1.1/DTD/svg11.dtd" >
<svg xmlns="http://www.w3.org/2000/svg" xmlns:xlink="http://www.w3.org/1999/xlink" version="1.1" viewBox="-10 0 1010 1000">
   <path fill="currentColor"
d="M520 133q11 5 16 16l346 622q9 15 4 32t-20 25q-10 5 -20 5h-692q-17 0 -29 -12t-12 -29q0 -12 5 -21l346 -622q8 -15 24.5 -20t31.5 4zM499 629q-17 0 -28.5 12t-11.5 28.5t12 28.5t28.5 12t28.5 -11.5t12 -28.5t-12 -29t-29 -12zM539 437h-79l16 167h47z" />
</svg>
