<?xml version="1.0" standalone="no"?>
<!DOCTYPE svg PUBLIC "-//W3C//DTD SVG 1.1//EN" "http://www.w3.org/Graphics/SVG/1.1/DTD/svg11.dtd" >
<svg xmlns="http://www.w3.org/2000/svg" xmlns:xlink="http://www.w3.org/1999/xlink" version="1.1" viewBox="-10 0 1010 1000">
   <path fill="currentColor"
d="M679 387q64 0 119 28t87 75.5t32 104.5q0 65 -44 120l44 89l-106 -36q-62 36 -132 36q-65 0 -119.5 -28t-86.5 -76t-32 -105t32 -104.5t86.5 -75.5t119.5 -28zM589 506q-12 0 -20.5 8.5t-8.5 21t8.5 21t21 8.5t21 -8.5t8.5 -21t-8.5 -21t-21.5 -8.5zM768 506
q-13 0 -21.5 8.5t-8.5 21t8.5 21t21 8.5t21.5 -8.5t9 -21t-9 -21t-21 -8.5zM381 208q77 0 145 34q64 33 105 90q-70 10 -127 47.5t-90 92.5q-33 58 -33 123q0 78 48 145q-32 4 -48 4q-71 0 -140 -33l-98 33l26 -80q-41 -37 -63.5 -85.5t-22.5 -102.5q0 -73 41 -135
q39 -61 107 -96q69 -37 150 -37zM292 327q-13 0 -21.5 9t-8.5 21.5t8.5 21t21 8.5t21 -8.5t8.5 -21t-8.5 -21.5t-20.5 -9zM470 327q-12 0 -20.5 9t-8.5 21.5t8.5 21t21 8.5t21 -8.5t8.5 -21t-8.5 -21.5t-21.5 -9z" />
</svg>
