<?xml version="1.0" standalone="no"?>
<!DOCTYPE svg PUBLIC "-//W3C//DTD SVG 1.1//EN" "http://www.w3.org/Graphics/SVG/1.1/DTD/svg11.dtd" >
<svg xmlns="http://www.w3.org/2000/svg" xmlns:xlink="http://www.w3.org/1999/xlink" version="1.1" viewBox="-10 0 1034 1024">
  <g transform="matrix(1 0 0 -1 0 960)">
   <path fill="currentColor"
d="M769.581 154.177q17.7471 0.110352 26.7422 9.5q9.38965 8.99512 9.5 26.7422q1.27051 22.6729 -9 32.9004l-241.682 240.681l241.682 240.681q10.3037 9.63477 9 32.9004q-0.110352 17.7471 -9.5 26.7422q-8.99512 9.38965 -26.7422 9.5q-22.6729 1.27051 -32.9004 -9
l-240.681 -241.682l-240.681 241.682q-9.63477 10.3037 -32.9004 9q-17.7471 -0.110352 -26.7422 -9.5q-9.38965 -8.99512 -9.5 -26.7422q-1.27051 -22.6729 9 -32.9004l241.682 -240.681l-241.682 -240.681q-10.3037 -9.63477 -9 -32.9004q0.110352 -17.7471 9.5 -26.7422
q8.99512 -9.38965 26.7422 -9.5q22.6729 -1.27051 32.9004 9l240.681 241.682l240.681 -241.682q9.63477 -10.3037 32.9004 -9z" />
  </g>

</svg>
